<?xml version="1.0" encoding="UTF-8" standalone="no"?>
<!-- Created with Inkscape (http://www.inkscape.org/) -->

<svg
   width="1587.402"
   height="241.88977"
   viewBox="0 0 420.00011 64.000002"
   version="1.1"
   id="svg1"
   xml:space="preserve"
   inkscape:export-filename="bitmap.svg"
   inkscape:export-xdpi="111.91122"
   inkscape:export-ydpi="111.91122"
   inkscape:version="1.3.2 (091e20e, 2023-11-25)"
   sodipodi:docname="icon-text-light.svg"
   xmlns:inkscape="http://www.inkscape.org/namespaces/inkscape"
   xmlns:sodipodi="http://sodipodi.sourceforge.net/DTD/sodipodi-0.dtd"
   xmlns="http://www.w3.org/2000/svg"
   xmlns:svg="http://www.w3.org/2000/svg"><sodipodi:namedview
     id="namedview1"
     pagecolor="#ffffff"
     bordercolor="#000000"
     borderopacity="0.25"
     inkscape:showpageshadow="2"
     inkscape:pageopacity="0.0"
     inkscape:pagecheckerboard="0"
     inkscape:deskcolor="#d1d1d1"
     inkscape:document-units="mm"
     inkscape:zoom="0.36998231"
     inkscape:cx="759.49577"
     inkscape:cy="128.38452"
     inkscape:window-width="1496"
     inkscape:window-height="900"
     inkscape:window-x="1928"
     inkscape:window-y="38"
     inkscape:window-maximized="0"
     inkscape:current-layer="layer1" /><defs
     id="defs1" /><g
     inkscape:label="Layer 1"
     inkscape:groupmode="layer"
     id="layer1"
     transform="translate(-12.569718,-88.640735)"><g
       id="g4"
       transform="matrix(0.06712155,0,0,0.06712155,17.647212,81.915325)"
       style="fill:#ffffff"><path
         style="fill:#ffffff"
         id="path1"
         d="" /><path
         style="fill:#ffffff;stroke-width:50;stroke-linecap:square;stroke-linejoin:round;stroke-miterlimit:2.2;paint-order:markers stroke fill"
         d="m 441.13739,181.85118 h 97.42028 c 0,0 -179.18806,321.45195 -255.45762,504.42054 -19.51501,46.81598 -33.83189,99.22791 -24.285,169.20653 7.67065,56.22584 43.76906,116.55961 43.76906,116.55961 H 31.972231 Z"
         id="path2" /><path
         style="fill:#ffffff;stroke-width:50;stroke-linecap:square;stroke-linejoin:round;stroke-miterlimit:2.2;paint-order:markers stroke fill"
         d="m 688.43662,181.85119 h 164.53202 l 271.81776,457.0773 c 0,0 -65.2336,131.73439 -135.42938,209.71036 -70.19583,77.97597 -135.65524,119.06923 -261.95229,119.06923 -126.29705,0 -210.06929,-118.94964 -219.10822,-252.00705 -9.03894,-133.05741 24.82051,-206.07888 63.23578,-308.70077 28.69234,-76.64821 116.90433,-225.14907 116.90433,-225.14907 z"
         id="path3" /><path
         style="fill:#ffffff;stroke-width:50;stroke-linecap:square;stroke-linejoin:round;stroke-miterlimit:2.2;paint-order:markers stroke fill"
         d="m 1047.4312,970.30784 h 297.4319 L 1198.8836,748.29247 Z"
         id="path4" /></g><path
       style="font-size:41.1831px;line-height:0;font-family:'Dune Rise';-inkscape-font-specification:'Dune Rise, Normal';letter-spacing:-1.98438px;fill:#ffffff;stroke:#ffffff;stroke-width:1.99998;stroke-linecap:square;stroke-miterlimit:2.2;paint-order:markers stroke fill"
       d="M 155.02671,134.35472 H 133.77623 V 104.1675 h -2.75927 v 30.18722 0.65892 2.10034 h 24.00975 8.93673 v -2.75926 h -2.51217 z m 39.73412,-13.71398 c 0,7.57769 -6.13628,13.71398 -13.67279,13.71398 -7.57769,0 -13.71398,-6.13629 -13.71398,-13.71398 V 104.1675 h -2.75926 v 16.47324 c 0,9.10147 7.37177,16.47324 16.47324,16.47324 9.06028,0 16.47324,-7.37177 16.47324,-16.47324 V 104.1675 h -2.80045 z m 25.52593,-16.47324 c -9.10147,0 -16.47324,7.41296 -16.47324,16.47324 v 16.47324 h 2.75926 v -16.47324 c 0,-7.53651 6.13629,-13.67279 13.71398,-13.67279 7.5365,0 13.67279,6.13628 13.67279,13.67279 v 16.47324 H 236.76 v -16.47324 c 0,-9.06028 -7.41296,-16.47324 -16.47324,-16.47324 z m 22.6843,32.94648 h 3.37701 l 15.15538,-26.93375 15.15538,26.93375 h 3.37702 l -18.5324,-32.94648 z m 76.26355,-24.00975 c 0,-4.90078 -4.03595,-8.93673 -8.93674,-8.93673 h -24.00974 v 32.94648 h 2.75926 v -15.07301 h 21.25048 c 3.37702,0 6.13629,2.75927 6.13629,6.17746 v 8.89555 h 2.80045 v -8.89555 c 0,-3.21228 -1.68851,-5.97155 -4.20068,-7.57769 2.51217,-1.56496 4.20068,-4.36541 4.20068,-7.53651 z m -30.18722,-6.13628 h 21.25048 c 3.37702,0 6.13629,2.75927 6.13629,6.13628 0,3.4182 -2.75927,6.17747 -6.13629,6.17747 h -21.25048 z m 65.06171,-2.80045 -25.86299,21.78586 V 104.1675 h -2.80045 v 24.1333 3.62411 5.18907 h 2.80045 v -7.5365 l 8.44253,-7.12468 17.42046,14.66118 h 4.32422 l -19.60315,-16.47324 19.60315,-16.47324 z m 25.06532,32.94648 h 3.33583 l 15.15538,-26.93375 15.15538,26.93375 h 3.37702 L 397.70681,104.1675 Z m 43.23471,0 h 2.80045 l -0.0412,-32.94648 h -2.75927 z"
       id="text1"
       transform="translate(-0.86337019)"
       aria-label="Lunark AI" /></g></svg>
